<svg preserveAspectRatio="xMidYMid meet" viewBox="0 2.7426691599999997 494.0178571428571 350.81199999999995" xmlns="http://www.w3.org/2000/svg" version="1.0" style="max-height: 500px" width="494.0178571428571" height="350.81199999999995">

<g stroke="none" fill="#000000" transform="translate(0.000000,374.000000) scale(0.100000,-0.100000)">
<path d="M0 1910 l0 -1830 2505 0 2505 0 0 1830 0 1830 -2505 0 -2505 0 0&#10;-1830z m3596 1587 c-74 -307 -154 -440 -321 -538 -81 -47 -149 -73 -430 -164&#10;-284 -91 -409 -143 -532 -219 -127 -78 -185 -123 -286 -224 -228 -224 -357&#10;-484 -357 -719 0 -29 -4 -53 -9 -53 -36 0 -47 361 -16 505 36 170 140 385 254&#10;528 150 186 364 354 608 476 104 52 179 82 473 188 366 132 496 204 600 335&#10;25 32 46 51 48 44 2 -8 -13 -79 -32 -159z m84 -390 c82 -377 92 -741 28 -1036&#10;-41 -192 -133 -413 -240 -575 -67 -102 -214 -256 -315 -328 -147 -106 -318&#10;-185 -498 -229 -119 -29 -318 -36 -425 -15 -215 44 -426 182 -547 358 -50 73&#10;-128 217 -121 224 3 2 21 -18 40 -44 121 -157 273 -265 453 -322 88 -27 280&#10;-38 380 -21 244 43 531 220 735 453 225 259 375 584 451 983 17 88 23 161 26&#10;362 3 139 9 251 13 248 5 -3 14 -29 20 -58z m-295 -459 c67 -78 29 -397 -74&#10;-633 -73 -168 -142 -268 -280 -405 -164 -162 -354 -282 -526 -332 -161 -46&#10;-352 -24 -528 61 -140 68 -142 72 -141 251 2 109 7 154 27 232 29 111 94 242&#10;167 339 163 216 459 392 795 472 155 37 229 45 393 44 143 -2 144 -2 167 -29z&#10;m-346 -1869 c57 -20 55 -38 -30 -309 -42 -136 -49 -167 -40 -187 6 -14 9 -29&#10;6 -34 -9 -13 -235 -12 -235 1 0 6 9 23 20 38 18 25 112 315 126 388 4 22 2 40&#10;-7 50 -18 22 6 42 62 53 62 12 62 12 98 0z m-2633 -174 c34 -65 66 -121 71&#10;-122 13 -5 57 160 51 189 -3 13 -7 30 -9 38 -3 12 10 16 65 18 87 4 98 -6 58&#10;-52 -19 -22 -34 -54 -42 -88 -6 -29 -28 -111 -50 -183 -41 -138 -59 -165 -109&#10;-165 -41 0 -72 40 -135 174 -32 69 -60 116 -65 110 -10 -10 -61 -191 -61 -215&#10;0 -8 5 -20 11 -26 7 -7 9 -19 6 -27 -9 -23 -135 -23 -144 0 -4 10 2 23 14 33&#10;23 18 36 54 87 244 27 99 33 133 26 153 -6 14 -7 30 -4 35 3 5 42 8 87 7 l82&#10;-3 61 -120z m3026 108 c9 -10 39 -64 67 -120 28 -57 55 -103 61 -103 17 0 51&#10;132 48 185 l-3 50 64 3 c80 4 94 -8 58 -46 -21 -22 -38 -67 -77 -207 -27 -99&#10;-58 -191 -68 -205 -13 -17 -30 -26 -54 -28 -30 -3 -40 2 -64 32 -16 19 -51 85&#10;-78 145 -28 61 -53 111 -58 111 -4 0 -16 -30 -27 -67 -40 -137 -42 -152 -31&#10;-174 21 -38 6 -49 -65 -49 -76 0 -93 16 -53 53 35 32 121 337 112 396 l-7 41&#10;80 0 c64 0 83 -4 95 -17z m-2078 -9 c11 -4 16 -19 16 -44 0 -35 2 -38 33 -43&#10;17 -2 59 0 92 6 127 22 150 -7 111 -141 -32 -111 -33 -132 -6 -132 23 0 40 30&#10;69 123 19 62 19 70 5 92 -14 22 -14 25 9 40 58 37 178 28 192 -16 3 -10 -7&#10;-60 -23 -111 -45 -144 -46 -149 -22 -155 23 -6 24 -8 10 -34 -16 -28 -63 -49&#10;-115 -49 -36 0 -51 6 -72 26 -21 21 -30 24 -42 15 -62 -44 -129 -52 -179 -21&#10;-55 34 -58 53 -23 175 17 59 28 111 25 116 -8 14 -80 11 -92 -4 -16 -18 -63&#10;-189 -58 -204 3 -7 21 -13 41 -13 39 0 46 -17 17 -43 -54 -49 -178 -63 -226&#10;-26 -34 26 -34 62 -1 159 31 90 31 117 4 146 -30 32 -19 54 29 54 29 0 45 7&#10;63 26 49 53 101 74 143 58z m3116 -39 c4 -32 9 -41 28 -43 51 -8 30 -62 -25&#10;-62 -26 0 -37 -17 -63 -102 -34 -112 -31 -128 20 -128 28 0 40 4 40 14 0 20&#10;48 56 74 56 32 0 66 -28 82 -66 11 -25 20 -34 39 -34 29 0 47 27 34 52 -5 10&#10;-35 31 -67 47 -95 48 -115 84 -83 155 23 53 55 72 137 81 121 14 234 -27 234&#10;-85 0 -34 -23 -50 -73 -50 -36 0 -87 32 -87 55 0 16 -18 23 -43 17 -13 -3 -17&#10;-12 -15 -30 2 -20 18 -33 78 -63 89 -46 110 -68 110 -118 0 -28 -7 -44 -27&#10;-63 -43 -39 -69 -49 -146 -55 -89 -7 -178 11 -216 42 l-28 24 -34 -25 c-19&#10;-14 -58 -32 -88 -41 -88 -25 -161 9 -161 77 0 14 11 58 25 98 30 90 31 115 4&#10;151 -26 36 -18 51 27 51 24 0 44 9 71 33 54 48 73 57 113 54 33 -2 35 -5 40&#10;-42z m-3532 -46 c54 -11 95 -47 106 -90 3 -14 -3 -58 -14 -97 -25 -90 -25&#10;-102 0 -102 24 0 25 -8 4 -38 -36 -52 -115 -67 -172 -32 l-34 21 -42 -21 c-50&#10;-24 -96 -26 -136 -5 -37 19 -50 43 -50 95 0 81 89 131 199 112 46 -9 58 -8 67&#10;4 19 24 27 84 13 100 -16 20 -29 18 -29 -5 0 -31 -32 -61 -72 -67 -30 -5 -41&#10;-2 -62 19 -74 74 63 141 222 106z m1165 0 c12 -7 26 -18 30 -25 6 -11 14 -9&#10;38 8 42 31 105 31 130 -1 42 -52 9 -141 -52 -141 -26 0 -79 42 -79 62 0 5 -7&#10;8 -14 8 -10 0 -27 -37 -50 -110 -20 -60 -36 -112 -36 -114 0 -3 9 -14 21 -25&#10;12 -11 18 -24 14 -30 -8 -14 -241 -15 -250 -1 -3 6 3 22 14 37 12 14 37 76 56&#10;137 31 95 34 115 24 139 -14 34 -5 46 43 57 49 12 87 11 111 -1z m526 0 c70&#10;-15 111 -54 111 -106 0 -22 -7 -62 -15 -89 -19 -64 -19 -94 1 -94 24 0 13 -40&#10;-17 -62 -41 -31 -100 -34 -146 -8 l-40 22 -41 -21 c-53 -27 -101 -27 -143 2&#10;-43 29 -56 71 -36 120 26 61 66 78 171 75 l90 -3 15 48 c13 43 13 49 -1 63&#10;-19 19 -38 11 -38 -15 0 -21 -26 -46 -56 -55 -29 -9 -70 8 -84 35 -25 46 49&#10;96 147 98 18 1 55 -4 82 -10z m1279 -5 c28 -19 27 -29 -3 -133 -29 -99 -31&#10;-131 -10 -131 22 0 51 52 71 127 14 53 15 68 4 87 -7 13 -9 29 -6 35 17 26&#10;148 41 187 21 26 -15 25 -67 -5 -157 -39 -117 -41 -133 -17 -133 26 0 28 -31&#10;4 -52 -33 -28 -64 -40 -110 -40 -35 0 -51 6 -72 26 l-27 26 -48 -25 c-81 -41&#10;-153 -29 -181 31 -18 39 -16 58 21 172 21 65 22 76 9 95 -8 13 -11 28 -6 36&#10;19 30 153 41 189 15z"/>
<path d="M779 379 c-9 -17 -8 -25 6 -38 15 -15 18 -14 36 8 26 32 24 51 -6 51&#10;-15 0 -29 -8 -36 -21z"/>
<path d="M2482 388 c-17 -17 -15 -48 4 -55 18 -7 39 12 49 45 5 18 3 22 -17&#10;22 -13 0 -29 -5 -36 -12z"/>
</g>
</svg>